<?xml version="1.0" encoding="iso-8859-1"?>
<!-- Generator: Adobe Illustrator 19.0.0, SVG Export Plug-In . SVG Version: 6.00 Build 0)  -->
<svg version="1.1" id="Capa_1" xmlns="http://www.w3.org/2000/svg" xmlns:xlink="http://www.w3.org/1999/xlink" x="0px" y="0px"
	 viewBox="0 0 512 512" style="enable-background:new 0 0 512 512;" xml:space="preserve">
<path style="fill:#FAD0BB;" d="M392,158.5c0-37.219-30.281-67.5-67.5-67.5H256l-30,87.5h166V158.5z"/>
<path style="fill:#FFEBC4;" d="M187.5,91c-37.219,0-67.5,30.281-67.5,67.5v20h136V91H187.5z"/>
<path style="fill:#F5B5B2;" d="M452,226c0-37.219-30.281-67.5-67.5-67.5H256L216,246h236V226z"/>
<path style="fill:#FAD0BB;" d="M127.5,158.5C90.281,158.5,60,188.781,60,226v20h196v-87.5H127.5z"/>
<polygon style="fill:#F5B5B2;" points="54.878,331 108.818,512 182.409,512 182.409,331 "/>
<polygon style="fill:#E94C4B;" points="329.591,331 329.591,512 403.182,512 457.122,331 "/>
<polygon style="fill:#ED6F6E;" points="236,331 256,512 329.591,512 356.561,331 "/>
<polygon style="fill:#F19290;" points="155.439,331 182.409,512 256,512 256,331 "/>
<path style="fill:#72231A;" d="M444.5,226H256l-30,67.5l30,67.5h188.5c37.279,0,67.5-30.221,67.5-67.5S481.779,226,444.5,226z"/>
<path style="fill:#98432B;" d="M67.5,226C30.221,226,0,256.221,0,293.5S30.221,361,67.5,361H256V226H67.5z"/>
<path style="fill:#F5B5B2;" d="M319.269,191.269v110c0,16.568,13.431,30,30,30s30-13.432,30-30v-110L319.269,191.269
	L319.269,191.269z"/>
<path style="fill:#BF2724;" d="M256,0l-25.111,45.5L256,91c25.129,0,45.5-20.371,45.5-45.5S281.129,0,256,0z"/>
<path style="fill:#E52929;" d="M210.5,45.5c0,25.129,20.371,45.5,45.5,45.5V0C230.871,0,210.5,20.371,210.5,45.5z"/>
<g>
</g>
<g>
</g>
<g>
</g>
<g>
</g>
<g>
</g>
<g>
</g>
<g>
</g>
<g>
</g>
<g>
</g>
<g>
</g>
<g>
</g>
<g>
</g>
<g>
</g>
<g>
</g>
<g>
</g>
</svg>
